<mxfile host="app.diagrams.net" agent="Mozilla/5.0 (Windows NT 10.0; Win64; x64) AppleWebKit/537.36 (KHTML, like Gecko) Chrome/141.0.0.0 Safari/537.36" version="28.2.8">
  <diagram name="Page-1" id="BOgb2yeXGjaKw8uL1MBH">
    <mxGraphModel dx="1501" dy="831" grid="1" gridSize="10" guides="1" tooltips="1" connect="1" arrows="1" fold="1" page="1" pageScale="1" pageWidth="850" pageHeight="1100" math="0" shadow="0">
      <root>
        <mxCell id="0" />
        <mxCell id="1" parent="0" />
        <mxCell id="USaXI382ov4VCFaaFqeK-2" value="" style="whiteSpace=wrap;html=1;aspect=fixed;fillColor=default;rounded=0;glass=0;shadow=0;gradientColor=none;strokeColor=none;" vertex="1" parent="1">
          <mxGeometry x="220" y="140" width="630" height="630" as="geometry" />
        </mxCell>
        <mxCell id="USaXI382ov4VCFaaFqeK-3" value="QLDT System" style="text;html=1;whiteSpace=wrap;strokeColor=none;fillColor=none;align=center;verticalAlign=middle;rounded=0;" vertex="1" parent="1">
          <mxGeometry x="452.5" y="150" width="165" height="30" as="geometry" />
        </mxCell>
        <mxCell id="USaXI382ov4VCFaaFqeK-4" value="Đăng ký học" style="ellipse;whiteSpace=wrap;html=1;" vertex="1" parent="1">
          <mxGeometry x="250" y="220" width="120" height="80" as="geometry" />
        </mxCell>
        <mxCell id="USaXI382ov4VCFaaFqeK-5" value="làn bai tập&lt;span style=&quot;color: rgba(0, 0, 0, 0); font-family: monospace; font-size: 0px; text-align: start; text-wrap-mode: nowrap;&quot;&gt;%3CmxGraphModel%3E%3Croot%3E%3CmxCell%20id%3D%220%22%2F%3E%3CmxCell%20id%3D%221%22%20parent%3D%220%22%2F%3E%3CmxCell%20id%3D%222%22%20value%3D%22%26lt%3Bdiv%20style%3D%26quot%3Btext-align%3A%20start%3B%26quot%3B%26gt%3B%26lt%3Bspan%20style%3D%26quot%3Bbackground-color%3A%20light-dark(%23ffffff%2C%20var(--ge-dark-color%2C%20%23121212))%3B%20color%3A%20light-dark(rgb(0%2C%200%2C%200)%2C%20rgb(255%2C%20255%2C%20255))%3B%26quot%3B%26gt%3B%26amp%3Bnbsp%3B%26lt%3B%2Fspan%26gt%3B%26lt%3Bspan%20style%3D%26quot%3Bbackground-color%3A%20light-dark(%23ffffff%2C%20var(--ge-dark-color%2C%20%23121212))%3B%20white-space%3A%20pre-wrap%3B%26quot%3B%26gt%3B%26lt%3Bfont%20face%3D%26quot%3BArial%2C%20sans-serif%26quot%3B%26gt%3B%26amp%3Blt%3B%26amp%3Blt%3Binclude%26amp%3Bgt%3B%26amp%3Bgt%3B%26lt%3B%2Ffont%26gt%3B%26lt%3B%2Fspan%26gt%3B%26lt%3B%2Fdiv%26gt%3B%22%20style%3D%22endArrow%3Dopen%3BendSize%3D12%3Bdashed%3D1%3Bhtml%3D1%3Brounded%3D0%3BentryX%3D0.5%3BentryY%3D0%3BentryDx%3D0%3BentryDy%3D0%3B%22%20edge%3D%221%22%20parent%3D%221%22%3E%3CmxGeometry%20width%3D%22160%22%20relative%3D%221%22%20as%3D%22geometry%22%3E%3CmxPoint%20x%3D%22370%22%20y%3D%22260%22%20as%3D%22sourcePoint%22%2F%3E%3CmxPoint%20x%3D%22380%22%20y%3D%22360%22%20as%3D%22targetPoint%22%2F%3E%3C%2FmxGeometry%3E%3C%2FmxCell%3E%3C%2Froot%3E%3C%2FmxGraphModel%3E&lt;/span&gt;" style="ellipse;whiteSpace=wrap;html=1;" vertex="1" parent="1">
          <mxGeometry x="510" y="410" width="120" height="80" as="geometry" />
        </mxCell>
        <mxCell id="USaXI382ov4VCFaaFqeK-6" value="Đăng nhập" style="ellipse;whiteSpace=wrap;html=1;" vertex="1" parent="1">
          <mxGeometry x="480" y="220" width="120" height="80" as="geometry" />
        </mxCell>
        <mxCell id="USaXI382ov4VCFaaFqeK-29" value="Hoc online" style="ellipse;whiteSpace=wrap;html=1;" vertex="1" parent="1">
          <mxGeometry x="260" y="400" width="120" height="80" as="geometry" />
        </mxCell>
        <mxCell id="USaXI382ov4VCFaaFqeK-44" style="edgeStyle=orthogonalEdgeStyle;rounded=0;orthogonalLoop=1;jettySize=auto;html=1;entryX=0;entryY=0.5;entryDx=0;entryDy=0;" edge="1" parent="1" target="USaXI382ov4VCFaaFqeK-4">
          <mxGeometry relative="1" as="geometry">
            <mxPoint x="90" y="390" as="sourcePoint" />
          </mxGeometry>
        </mxCell>
        <mxCell id="USaXI382ov4VCFaaFqeK-57" style="edgeStyle=orthogonalEdgeStyle;rounded=0;orthogonalLoop=1;jettySize=auto;html=1;entryX=0;entryY=0.5;entryDx=0;entryDy=0;" edge="1" parent="1" source="USaXI382ov4VCFaaFqeK-41" target="USaXI382ov4VCFaaFqeK-29">
          <mxGeometry relative="1" as="geometry" />
        </mxCell>
        <mxCell id="USaXI382ov4VCFaaFqeK-41" value="Học Viên" style="shape=umlActor;verticalLabelPosition=bottom;verticalAlign=top;html=1;" vertex="1" parent="1">
          <mxGeometry x="50" y="360" width="40" height="60" as="geometry" />
        </mxCell>
        <mxCell id="USaXI382ov4VCFaaFqeK-51" value="xem bài giảng" style="ellipse;whiteSpace=wrap;html=1;" vertex="1" parent="1">
          <mxGeometry x="510" y="320" width="120" height="80" as="geometry" />
        </mxCell>
        <mxCell id="USaXI382ov4VCFaaFqeK-55" value="Trao đổi giáo viên&amp;nbsp;" style="ellipse;whiteSpace=wrap;html=1;" vertex="1" parent="1">
          <mxGeometry x="510" y="500" width="120" height="80" as="geometry" />
        </mxCell>
        <mxCell id="USaXI382ov4VCFaaFqeK-61" style="edgeStyle=orthogonalEdgeStyle;rounded=0;orthogonalLoop=1;jettySize=auto;html=1;entryX=0.5;entryY=0;entryDx=0;entryDy=0;" edge="1" parent="1" source="USaXI382ov4VCFaaFqeK-56" target="USaXI382ov4VCFaaFqeK-58">
          <mxGeometry relative="1" as="geometry" />
        </mxCell>
        <mxCell id="USaXI382ov4VCFaaFqeK-62" style="edgeStyle=orthogonalEdgeStyle;rounded=0;orthogonalLoop=1;jettySize=auto;html=1;entryX=0.5;entryY=0;entryDx=0;entryDy=0;" edge="1" parent="1" source="USaXI382ov4VCFaaFqeK-56" target="USaXI382ov4VCFaaFqeK-59">
          <mxGeometry relative="1" as="geometry" />
        </mxCell>
        <mxCell id="USaXI382ov4VCFaaFqeK-63" style="edgeStyle=orthogonalEdgeStyle;rounded=0;orthogonalLoop=1;jettySize=auto;html=1;entryX=0.5;entryY=0;entryDx=0;entryDy=0;" edge="1" parent="1" source="USaXI382ov4VCFaaFqeK-56" target="USaXI382ov4VCFaaFqeK-60">
          <mxGeometry relative="1" as="geometry" />
        </mxCell>
        <mxCell id="USaXI382ov4VCFaaFqeK-56" value="Quản trị viên" style="shape=umlActor;verticalLabelPosition=bottom;verticalAlign=top;html=1;" vertex="1" parent="1">
          <mxGeometry x="50" y="560" width="40" height="60" as="geometry" />
        </mxCell>
        <mxCell id="USaXI382ov4VCFaaFqeK-58" value="Quản lý người dùng" style="ellipse;whiteSpace=wrap;html=1;" vertex="1" parent="1">
          <mxGeometry x="240" y="660" width="120" height="80" as="geometry" />
        </mxCell>
        <mxCell id="USaXI382ov4VCFaaFqeK-59" value="Quản lý khoá học&lt;span style=&quot;color: rgba(0, 0, 0, 0); font-family: monospace; font-size: 0px; text-align: start; text-wrap-mode: nowrap;&quot;&gt;%3CmxGraphModel%3E%3Croot%3E%3CmxCell%20id%3D%220%22%2F%3E%3CmxCell%20id%3D%221%22%20parent%3D%220%22%2F%3E%3CmxCell%20id%3D%222%22%20value%3D%22Qu%E1%BA%A3n%20l%C3%BD%20ng%C6%B0%E1%BB%9Di%20d%C3%B9ng%22%20style%3D%22ellipse%3BwhiteSpace%3Dwrap%3Bhtml%3D1%3B%22%20vertex%3D%221%22%20parent%3D%221%22%3E%3CmxGeometry%20x%3D%22250%22%20y%3D%22600%22%20width%3D%22120%22%20height%3D%2280%22%20as%3D%22geometry%22%2F%3E%3C%2FmxCell%3E%3C%2Froot%3E%3C%2FmxGraphModel%3E&lt;/span&gt;" style="ellipse;whiteSpace=wrap;html=1;" vertex="1" parent="1">
          <mxGeometry x="390" y="660" width="120" height="80" as="geometry" />
        </mxCell>
        <mxCell id="USaXI382ov4VCFaaFqeK-60" value="Theo dõi thổng kê" style="ellipse;whiteSpace=wrap;html=1;" vertex="1" parent="1">
          <mxGeometry x="540" y="660" width="120" height="80" as="geometry" />
        </mxCell>
        <mxCell id="USaXI382ov4VCFaaFqeK-64" value="&amp;lt;&amp;lt;include&amp;gt;&amp;gt;" style="endArrow=open;endSize=12;dashed=1;html=1;rounded=0;exitX=1;exitY=0.5;exitDx=0;exitDy=0;entryX=0;entryY=0.5;entryDx=0;entryDy=0;" edge="1" parent="1" source="USaXI382ov4VCFaaFqeK-4" target="USaXI382ov4VCFaaFqeK-6">
          <mxGeometry width="160" relative="1" as="geometry">
            <mxPoint x="400" y="520" as="sourcePoint" />
            <mxPoint x="560" y="520" as="targetPoint" />
          </mxGeometry>
        </mxCell>
        <mxCell id="USaXI382ov4VCFaaFqeK-66" value="&amp;lt;&amp;lt;include&amp;gt;&amp;gt;" style="endArrow=open;endSize=12;dashed=1;html=1;rounded=0;exitX=1;exitY=0.5;exitDx=0;exitDy=0;entryX=0;entryY=0.5;entryDx=0;entryDy=0;" edge="1" parent="1" source="USaXI382ov4VCFaaFqeK-29" target="USaXI382ov4VCFaaFqeK-51">
          <mxGeometry width="160" relative="1" as="geometry">
            <mxPoint x="380" y="260" as="sourcePoint" />
            <mxPoint x="490" y="260" as="targetPoint" />
          </mxGeometry>
        </mxCell>
        <mxCell id="USaXI382ov4VCFaaFqeK-67" value="&amp;lt;&amp;lt;include&amp;gt;&amp;gt;" style="endArrow=open;endSize=12;dashed=1;html=1;rounded=0;exitX=1;exitY=0.5;exitDx=0;exitDy=0;entryX=0;entryY=0.5;entryDx=0;entryDy=0;" edge="1" parent="1" source="USaXI382ov4VCFaaFqeK-29" target="USaXI382ov4VCFaaFqeK-5">
          <mxGeometry width="160" relative="1" as="geometry">
            <mxPoint x="460" y="530" as="sourcePoint" />
            <mxPoint x="590" y="450" as="targetPoint" />
          </mxGeometry>
        </mxCell>
        <mxCell id="USaXI382ov4VCFaaFqeK-68" value="&amp;lt;&amp;lt;extend&amp;gt;&amp;gt;" style="endArrow=open;endSize=12;dashed=1;html=1;rounded=0;exitX=1;exitY=0.5;exitDx=0;exitDy=0;entryX=0;entryY=0.5;entryDx=0;entryDy=0;" edge="1" parent="1" source="USaXI382ov4VCFaaFqeK-29" target="USaXI382ov4VCFaaFqeK-55">
          <mxGeometry width="160" relative="1" as="geometry">
            <mxPoint x="510" y="490" as="sourcePoint" />
            <mxPoint x="640" y="500" as="targetPoint" />
          </mxGeometry>
        </mxCell>
        <mxCell id="USaXI382ov4VCFaaFqeK-78" style="edgeStyle=orthogonalEdgeStyle;rounded=0;orthogonalLoop=1;jettySize=auto;html=1;entryX=1;entryY=0.5;entryDx=0;entryDy=0;" edge="1" parent="1" source="USaXI382ov4VCFaaFqeK-73" target="USaXI382ov4VCFaaFqeK-77">
          <mxGeometry relative="1" as="geometry" />
        </mxCell>
        <mxCell id="USaXI382ov4VCFaaFqeK-73" value="Giáo viiên" style="shape=umlActor;verticalLabelPosition=bottom;verticalAlign=top;html=1;" vertex="1" parent="1">
          <mxGeometry x="980" y="390" width="40" height="60" as="geometry" />
        </mxCell>
        <mxCell id="USaXI382ov4VCFaaFqeK-77" value="Quản lý điểm" style="ellipse;whiteSpace=wrap;html=1;" vertex="1" parent="1">
          <mxGeometry x="670" y="380" width="120" height="80" as="geometry" />
        </mxCell>
      </root>
    </mxGraphModel>
  </diagram>
</mxfile>
